<svg width="56" height="56" viewBox="0 0 56 56" fill="none" xmlns="http://www.w3.org/2000/svg">
<path fill-rule="evenodd" clip-rule="evenodd" d="M0.49997 5.09501C0.49997 3.87634 0.984085 2.70758 1.84581 1.84585C2.70754 0.984121 3.8763 0.500006 5.09497 0.500006H50.9C51.5039 0.49902 52.1021 0.617163 52.6603 0.847673C53.2185 1.07818 53.7258 1.41653 54.1531 1.84335C54.5804 2.27016 54.9193 2.77706 55.1504 3.33503C55.3815 3.893 55.5003 4.49107 55.5 5.09501V50.9C55.5006 51.5041 55.3822 52.1023 55.1514 52.6605C54.9206 53.2188 54.582 53.726 54.155 54.1533C53.728 54.5805 53.2209 54.9194 52.6628 55.1505C52.1047 55.3816 51.5065 55.5003 50.9025 55.5H5.09497C4.49134 55.5 3.89362 55.3811 3.33596 55.15C2.77831 54.9189 2.27165 54.5802 1.84493 54.1533C1.41821 53.7263 1.0798 53.2195 0.849026 52.6617C0.618253 52.1039 0.499642 51.5061 0.49997 50.9025V5.09501ZM22.27 21.47H29.7175V25.21C30.7925 23.06 33.5425 21.125 37.675 21.125C45.5975 21.125 47.475 25.4075 47.475 33.265V47.82H39.4575V35.055C39.4575 30.58 38.3825 28.055 35.6525 28.055C31.865 28.055 30.29 30.7775 30.29 35.055V47.82H22.27V21.47ZM8.51997 47.4775H16.54V21.125H8.51997V47.475V47.4775ZM17.6875 12.53C17.7026 13.2167 17.5804 13.8995 17.3281 14.5383C17.0757 15.1771 16.6983 15.7591 16.218 16.2501C15.7378 16.7411 15.1642 17.1312 14.5311 17.3975C13.898 17.6639 13.2181 17.801 12.5312 17.801C11.8444 17.801 11.1644 17.6639 10.5313 17.3975C9.89822 17.1312 9.32469 16.7411 8.84439 16.2501C8.36409 15.7591 7.9867 15.1771 7.73437 14.5383C7.48204 13.8995 7.35985 13.2167 7.37497 12.53C7.40465 11.1821 7.96093 9.89948 8.92468 8.95672C9.88843 8.01396 11.183 7.48605 12.5312 7.48605C13.8794 7.48605 15.174 8.01396 16.1378 8.95672C17.1015 9.89948 17.6578 11.1821 17.6875 12.53V12.53Z" fill="black"/>
</svg>
